<?xml version="1.0" encoding="UTF-8" standalone="no"?><!DOCTYPE svg PUBLIC "-//W3C//DTD SVG 1.1//EN" "http://www.w3.org/Graphics/SVG/1.1/DTD/svg11.dtd"><svg width="100%" height="100%" viewBox="0 0 1131 504" version="1.1" xmlns="http://www.w3.org/2000/svg" xmlns:xlink="http://www.w3.org/1999/xlink" xml:space="preserve" xmlns:serif="http://www.serif.com/" style="fill-rule:evenodd;clip-rule:evenodd;stroke-linecap:round;stroke-linejoin:round;stroke-miterlimit:1.5;"><rect id="photo-format-4x3--ratio-1.3--landscape" serif:id="photo format 4x3 (ratio 1.3) landscape" x="0" y="0" width="1130.62" height="503.25" style="fill:none;"/><g><g><path d="M301.43,187.077l-147.284,-76.295l131.361,-38.48l153.255,58.383l-137.332,56.392Z" style="fill:none;stroke:#000;stroke-width:10.3px;"/><path d="M438.762,130.685l-7.298,80.276l-75.919,40.664l-0.936,-20.076l-15.317,-0.75l-16.053,4.805l-24.272,0l1.799,-48.527l137.996,-56.392Z" style="fill:none;stroke:#000;stroke-width:10.3px;"/><path d="M154.146,112.108l0,74.969l71.786,48.527l72.674,-0.328l2.16,-48.199l-146.62,-74.969Z" style="fill:none;stroke:#000;stroke-width:10.3px;"/></g><g transform="matrix(3.27618,0,0,3.27618,-18824.8,-25378.6)"><g transform="matrix(16.5543,0,0,16.5543,5807.35,7871)"><path d="M0.426,-0.195l0.102,0.066c-0.048,0.095 -0.125,0.143 -0.232,0.143c-0.075,0 -0.137,-0.024 -0.187,-0.073c-0.049,-0.048 -0.074,-0.111 -0.074,-0.189c0,-0.077 0.025,-0.14 0.076,-0.189c0.051,-0.049 0.112,-0.073 0.185,-0.073c0.055,0 0.102,0.012 0.141,0.035c0.04,0.024 0.069,0.057 0.086,0.1l-0.103,0.068c-0.026,-0.057 -0.068,-0.085 -0.125,-0.085c-0.038,0 -0.07,0.013 -0.095,0.04c-0.025,0.026 -0.037,0.061 -0.037,0.104c0,0.044 0.012,0.079 0.037,0.105c0.025,0.026 0.056,0.039 0.095,0.039c0.032,0 0.058,-0.007 0.078,-0.022c0.021,-0.015 0.038,-0.038 0.053,-0.069Z" style="fill-rule:nonzero;"/></g><g transform="matrix(16.5543,0,0,16.5543,5816.49,7871)"><path d="M0.537,-0.335l0,0.335l-0.126,0l0,-0.286c0,-0.033 -0.009,-0.059 -0.026,-0.078c-0.017,-0.019 -0.041,-0.028 -0.074,-0.028c-0.035,0 -0.064,0.013 -0.087,0.039c-0.023,0.026 -0.035,0.06 -0.035,0.101l0,0.252l-0.126,0l0,-0.7l0.126,0l0,0.282c0.039,-0.061 0.097,-0.092 0.172,-0.092c0.054,0 0.097,0.016 0.129,0.048c0.031,0.031 0.047,0.074 0.047,0.127Z" style="fill-rule:nonzero;"/></g><g transform="matrix(16.5543,0,0,16.5543,5826.24,7871)"><path d="M0.528,0l-0.128,0c-0.016,-0.02 -0.024,-0.046 -0.024,-0.079c-0.035,0.062 -0.09,0.093 -0.166,0.093c-0.049,0 -0.089,-0.014 -0.121,-0.042c-0.031,-0.029 -0.046,-0.066 -0.046,-0.113c0,-0.047 0.017,-0.084 0.05,-0.111c0.033,-0.028 0.075,-0.045 0.127,-0.053l0.149,-0.023l0,-0.019c0,-0.05 -0.03,-0.075 -0.091,-0.075c-0.028,0 -0.05,0.005 -0.066,0.016c-0.015,0.011 -0.023,0.024 -0.023,0.04c0,0.004 0.001,0.008 0.002,0.012l-0.113,0.038c-0.006,-0.013 -0.009,-0.027 -0.009,-0.042c0,-0.041 0.019,-0.076 0.057,-0.106c0.038,-0.031 0.089,-0.046 0.152,-0.046c0.071,0 0.125,0.015 0.161,0.045c0.037,0.03 0.056,0.075 0.056,0.135l0,0.207c0,0.05 0.011,0.091 0.033,0.123Zm-0.288,-0.088c0.038,0 0.069,-0.012 0.093,-0.038c0.024,-0.024 0.036,-0.06 0.036,-0.106l0,-0.009l-0.12,0.02c-0.055,0.009 -0.083,0.034 -0.083,0.073c0,0.019 0.007,0.034 0.02,0.045c0.013,0.01 0.031,0.015 0.054,0.015Z" style="fill-rule:nonzero;"/></g><g transform="matrix(16.5543,0,0,16.5543,5835.53,7871)"><path d="M0.561,-0.496l0,0.7l-0.126,0l0,-0.27c-0.033,0.053 -0.087,0.08 -0.16,0.08c-0.065,0 -0.122,-0.024 -0.169,-0.073c-0.047,-0.049 -0.071,-0.112 -0.071,-0.189c0,-0.079 0.024,-0.142 0.072,-0.19c0.048,-0.048 0.104,-0.072 0.168,-0.072c0.037,0 0.07,0.007 0.098,0.023c0.028,0.015 0.049,0.035 0.062,0.062l0,-0.071l0.126,0Zm-0.158,0.146c-0.027,-0.028 -0.06,-0.042 -0.1,-0.042c-0.04,0 -0.073,0.014 -0.1,0.041c-0.027,0.028 -0.04,0.062 -0.04,0.103c0,0.041 0.013,0.075 0.04,0.102c0.027,0.028 0.06,0.042 0.1,0.042c0.04,0 0.073,-0.014 0.1,-0.042c0.027,-0.027 0.04,-0.061 0.04,-0.102c0,-0.041 -0.013,-0.075 -0.04,-0.102Z" style="fill-rule:nonzero;"/></g><g transform="matrix(16.5543,0,0,16.5543,5845.77,7871)"><path d="M0.063,-0.188l0,-0.308l0.126,0l0,0.279c0,0.075 0.034,0.113 0.101,0.113c0.035,0 0.063,-0.013 0.083,-0.038c0.021,-0.025 0.032,-0.058 0.032,-0.098l0,-0.256l0.126,0l0,0.496l-0.126,0l0,-0.078c-0.033,0.061 -0.086,0.092 -0.158,0.092c-0.054,0 -0.098,-0.018 -0.133,-0.053c-0.034,-0.035 -0.051,-0.085 -0.051,-0.149Z" style="fill-rule:nonzero;"/></g><g transform="matrix(16.5543,0,0,16.5543,5855.61,7871)"><path d="M0.538,-0.218l-0.382,0c0.004,0.038 0.018,0.068 0.043,0.091c0.025,0.022 0.056,0.033 0.093,0.033c0.061,0 0.107,-0.03 0.137,-0.091l0.094,0.054c-0.047,0.097 -0.124,0.145 -0.233,0.145c-0.071,0 -0.131,-0.024 -0.181,-0.073c-0.049,-0.049 -0.074,-0.112 -0.074,-0.189c0,-0.077 0.025,-0.14 0.075,-0.189c0.051,-0.049 0.113,-0.073 0.186,-0.073c0.071,0 0.129,0.023 0.174,0.07c0.045,0.046 0.068,0.105 0.068,0.178l0,0.044Zm-0.246,-0.196c-0.033,0 -0.061,0.01 -0.086,0.03c-0.024,0.019 -0.041,0.044 -0.05,0.074l0.266,0c-0.006,-0.033 -0.02,-0.058 -0.043,-0.077c-0.023,-0.018 -0.052,-0.027 -0.087,-0.027Z" style="fill-rule:nonzero;"/></g><g transform="matrix(16.5543,0,0,16.5543,5785.24,7888)"><path d="M0.063,0l0,-0.7l0.126,0l0,0.265c0.039,-0.05 0.094,-0.075 0.163,-0.075c0.069,0 0.125,0.024 0.17,0.071c0.045,0.046 0.067,0.11 0.067,0.191c0,0.08 -0.023,0.144 -0.069,0.191c-0.046,0.047 -0.103,0.071 -0.17,0.071c-0.071,0 -0.124,-0.025 -0.161,-0.075l0,0.061l-0.126,0Zm0.157,-0.144c0.027,0.027 0.06,0.04 0.101,0.04c0.041,0 0.074,-0.013 0.101,-0.04c0.026,-0.027 0.039,-0.062 0.039,-0.104c0,-0.042 -0.013,-0.076 -0.039,-0.104c-0.027,-0.026 -0.06,-0.04 -0.101,-0.04c-0.041,0 -0.074,0.014 -0.1,0.04c-0.027,0.028 -0.04,0.062 -0.04,0.104c0,0.042 0.013,0.077 0.039,0.104Z" style="fill-rule:nonzero;"/></g><g transform="matrix(16.5543,0,0,16.5543,5795.57,7888)"><path d="M0.496,-0.44c0.054,0.046 0.081,0.11 0.081,0.192c0,0.082 -0.027,0.146 -0.08,0.193c-0.054,0.046 -0.118,0.069 -0.191,0.069c-0.073,0 -0.137,-0.023 -0.19,-0.07c-0.054,-0.046 -0.081,-0.11 -0.081,-0.192c0,-0.082 0.027,-0.146 0.081,-0.193c0.053,-0.046 0.117,-0.069 0.19,-0.069c0.073,0 0.137,0.023 0.19,0.07Zm-0.291,0.297c0.029,0.026 0.062,0.039 0.101,0.039c0.039,0 0.072,-0.013 0.101,-0.04c0.028,-0.026 0.042,-0.061 0.042,-0.104c0,-0.043 -0.014,-0.078 -0.042,-0.104c-0.029,-0.027 -0.062,-0.04 -0.101,-0.04c-0.039,0 -0.072,0.013 -0.1,0.04c-0.029,0.026 -0.043,0.061 -0.043,0.104c0,0.043 0.014,0.078 0.042,0.105Z" style="fill-rule:nonzero;"/></g><g transform="matrix(16.5543,0,0,16.5543,5805.7,7888)"><path d="M0.062,0l0,-0.496l0.126,0l0,0.496l-0.126,0Zm-0.095,-0.55l0.113,-0.157l0.09,0l0.113,0.157l-0.099,0l-0.059,-0.06l-0.059,0.06l-0.099,0Z" style="fill-rule:nonzero;"/></g><g transform="matrix(16.5543,0,0,16.5543,5809.84,7888)"><path d="M0.024,-0.394l0,-0.102l0.077,0l0,-0.134l0.126,0l0,0.134l0.108,0l0,0.102l-0.108,0l0,0.226c0,0.047 0.021,0.07 0.063,0.07c0.015,0 0.029,-0.002 0.042,-0.006l0.012,0.104c-0.025,0.009 -0.053,0.014 -0.084,0.014c-0.106,0 -0.159,-0.053 -0.159,-0.158l0,-0.25l-0.077,0Z" style="fill-rule:nonzero;"/></g><g transform="matrix(16.5543,0,0,16.5543,5815.8,7888)"><path d="M0.538,-0.218l-0.382,0c0.004,0.038 0.018,0.068 0.043,0.091c0.025,0.022 0.056,0.033 0.093,0.033c0.061,0 0.107,-0.03 0.137,-0.091l0.094,0.054c-0.047,0.097 -0.124,0.145 -0.233,0.145c-0.071,0 -0.131,-0.024 -0.181,-0.073c-0.049,-0.049 -0.074,-0.112 -0.074,-0.189c0,-0.077 0.025,-0.14 0.075,-0.189c0.051,-0.049 0.113,-0.073 0.186,-0.073c0.071,0 0.129,0.023 0.174,0.07c0.045,0.046 0.068,0.105 0.068,0.178l0,0.044Zm-0.246,-0.196c-0.033,0 -0.061,0.01 -0.086,0.03c-0.024,0.019 -0.041,0.044 -0.05,0.074l0.266,0c-0.006,-0.033 -0.02,-0.058 -0.043,-0.077c-0.023,-0.018 -0.052,-0.027 -0.087,-0.027Z" style="fill-rule:nonzero;"/></g><g transform="matrix(16.5543,0,0,16.5543,5829.89,7888)"><path d="M0.527,-0.496l-0.201,0.496l-0.118,0l-0.201,-0.496l0.134,0l0.126,0.336l0.126,-0.336l0.134,0Z" style="fill-rule:nonzero;"/></g><g transform="matrix(16.5543,0,0,16.5543,5838.46,7888)"><path d="M0.538,-0.218l-0.382,0c0.004,0.038 0.018,0.068 0.043,0.091c0.025,0.022 0.056,0.033 0.093,0.033c0.061,0 0.107,-0.03 0.137,-0.091l0.094,0.054c-0.047,0.097 -0.124,0.145 -0.233,0.145c-0.071,0 -0.131,-0.024 -0.181,-0.073c-0.049,-0.049 -0.074,-0.112 -0.074,-0.189c0,-0.077 0.025,-0.14 0.075,-0.189c0.051,-0.049 0.113,-0.073 0.186,-0.073c0.071,0 0.129,0.023 0.174,0.07c0.045,0.046 0.068,0.105 0.068,0.178l0,0.044Zm-0.246,-0.196c-0.033,0 -0.061,0.01 -0.086,0.03c-0.024,0.019 -0.041,0.044 -0.05,0.074l0.266,0c-0.006,-0.033 -0.02,-0.058 -0.043,-0.077c-0.023,-0.018 -0.052,-0.027 -0.087,-0.027Z" style="fill-rule:nonzero;"/></g><g transform="matrix(16.5543,0,0,16.5543,5847.98,7888)"><path d="M0.531,-0.338l0,0.338l-0.126,0l0,-0.286c0,-0.071 -0.034,-0.106 -0.101,-0.106c-0.033,0 -0.061,0.013 -0.083,0.039c-0.021,0.026 -0.032,0.06 -0.032,0.101l0,0.252l-0.126,0l0,-0.496l0.126,0l0,0.08c0.041,-0.063 0.097,-0.094 0.168,-0.094c0.053,0 0.095,0.016 0.126,0.047c0.032,0.031 0.048,0.073 0.048,0.125Z" style="fill-rule:nonzero;"/></g><g transform="matrix(16.5543,0,0,16.5543,5857.7,7888)"><path d="M0.561,-0.7l0,0.7l-0.126,0l0,-0.07c-0.014,0.025 -0.035,0.045 -0.062,0.061c-0.027,0.015 -0.058,0.023 -0.094,0.023c-0.07,0 -0.128,-0.024 -0.175,-0.071c-0.046,-0.047 -0.069,-0.111 -0.069,-0.191c0,-0.079 0.024,-0.142 0.074,-0.19c0.049,-0.048 0.105,-0.072 0.17,-0.072c0.073,0 0.125,0.025 0.156,0.075l0,-0.265l0.126,0Zm-0.358,0.556c0.027,0.027 0.06,0.04 0.1,0.04c0.04,0 0.073,-0.014 0.1,-0.041c0.027,-0.027 0.04,-0.061 0.04,-0.103c0,-0.042 -0.013,-0.077 -0.04,-0.104c-0.027,-0.027 -0.06,-0.04 -0.1,-0.04c-0.04,0 -0.073,0.013 -0.1,0.04c-0.027,0.027 -0.04,0.062 -0.04,0.104c0,0.042 0.013,0.077 0.04,0.104Z" style="fill-rule:nonzero;"/></g><g transform="matrix(16.5543,0,0,16.5543,5867.88,7888)"><path d="M0.063,-0.188l0,-0.308l0.126,0l0,0.279c0,0.075 0.034,0.113 0.101,0.113c0.035,0 0.063,-0.013 0.083,-0.038c0.021,-0.025 0.032,-0.058 0.032,-0.098l0,-0.256l0.126,0l0,0.496l-0.126,0l0,-0.078c-0.033,0.061 -0.086,0.092 -0.158,0.092c-0.054,0 -0.098,-0.018 -0.133,-0.053c-0.034,-0.035 -0.051,-0.085 -0.051,-0.149Z" style="fill-rule:nonzero;"/></g><g transform="matrix(16.5543,0,0,16.5543,5877.71,7888)"><path d="M0.538,-0.218l-0.382,0c0.004,0.038 0.018,0.068 0.043,0.091c0.025,0.022 0.056,0.033 0.093,0.033c0.061,0 0.107,-0.03 0.137,-0.091l0.094,0.054c-0.047,0.097 -0.124,0.145 -0.233,0.145c-0.071,0 -0.131,-0.024 -0.181,-0.073c-0.049,-0.049 -0.074,-0.112 -0.074,-0.189c0,-0.077 0.025,-0.14 0.075,-0.189c0.051,-0.049 0.113,-0.073 0.186,-0.073c0.071,0 0.129,0.023 0.174,0.07c0.045,0.046 0.068,0.105 0.068,0.178l0,0.044Zm-0.246,-0.196c-0.033,0 -0.061,0.01 -0.086,0.03c-0.024,0.019 -0.041,0.044 -0.05,0.074l0.266,0c-0.006,-0.033 -0.02,-0.058 -0.043,-0.077c-0.023,-0.018 -0.052,-0.027 -0.087,-0.027Z" style="fill-rule:nonzero;"/></g></g></g><g><clipPath id="_clip1"><rect x="716.149" y="38.621" width="282.381" height="322.721"/></clipPath><g clip-path="url(#_clip1)"><path d="M917.478,240.321l-60.138,60.126l-60.139,-60.126c-45.061,1.954 -81.052,38.827 -81.052,84.33c0,20.128 16.563,36.69 36.691,36.69l208.999,0c20.128,0 36.691,-16.562 36.691,-36.69c0,-45.503 -35.991,-82.376 -81.052,-84.33Zm-60.138,-10.085c44.259,0 80.68,-36.42 80.68,-80.68l0,-69.448c0.01,-8.397 -5.224,-15.96 -13.086,-18.909l-53.431,-20.013c-9.129,-3.423 -19.197,-3.423 -28.327,0l-53.431,20.038c-7.853,2.946 -13.085,10.497 -13.086,18.884l0,69.448c0,44.26 36.421,80.68 80.681,80.68Zm-25.213,-146.441c0,-1.729 1.423,-3.151 3.152,-3.151l13.659,0l0,-13.659c0,-1.729 1.422,-3.152 3.151,-3.152l10.501,0c1.729,0 3.152,1.423 3.152,3.152l0,13.659l13.659,0c1.728,0 3.151,1.422 3.151,3.151l0,10.501c0,1.729 -1.423,3.152 -3.151,3.152l-13.659,0l0,13.659c0,1.729 -1.423,3.151 -3.152,3.151l-10.501,0c-1.729,0 -3.151,-1.422 -3.151,-3.151l0,-13.659l-13.659,0c-1.729,0 -3.152,-1.423 -3.152,-3.152l0,-10.501Zm-25.212,55.676l100.85,0l0,10.085c0,27.662 -22.763,50.425 -50.425,50.425c-27.663,0 -50.425,-22.763 -50.425,-50.425l0,-10.085Z" style="fill-rule:nonzero;"/></g><g transform="matrix(3.27618,0,0,3.27618,-18263.9,-25434.3)"><g transform="matrix(16.5543,0,0,16.5543,5828.13,7871)"><path d="M0.046,-0.49l0,-0.122c0.039,0 0.071,-0.007 0.096,-0.022c0.024,-0.014 0.044,-0.036 0.059,-0.066l0.124,0l0,0.7l-0.132,0l0,-0.537c-0.032,0.031 -0.081,0.047 -0.147,0.047Z" style="fill:#f4fbf3;fill-rule:nonzero;"/></g><g transform="matrix(16.5543,0,0,16.5543,5834.65,7871)"><path d="M0.047,-0.094l0.266,-0.261c0.03,-0.029 0.051,-0.054 0.064,-0.075c0.012,-0.021 0.018,-0.043 0.018,-0.068c0,-0.03 -0.01,-0.054 -0.029,-0.073c-0.019,-0.018 -0.045,-0.027 -0.078,-0.027c-0.033,0 -0.059,0.009 -0.079,0.026c-0.02,0.018 -0.03,0.042 -0.03,0.073c0,0.017 0.003,0.033 0.009,0.048l-0.128,0.024c-0.009,-0.022 -0.013,-0.048 -0.013,-0.079c0,-0.057 0.022,-0.106 0.067,-0.147c0.044,-0.04 0.102,-0.061 0.174,-0.061c0.075,0 0.133,0.019 0.174,0.056c0.041,0.037 0.061,0.086 0.061,0.145c0,0.046 -0.009,0.086 -0.026,0.12c-0.018,0.035 -0.05,0.074 -0.096,0.118l-0.157,0.153l0.279,0l0,0.122l-0.476,0l0,-0.094Z" style="fill:#f4fbf3;fill-rule:nonzero;"/></g><g transform="matrix(16.5543,0,0,16.5543,5811.52,7888)"><path d="M0.063,0l0,-0.7l0.126,0l0,0.265c0.039,-0.05 0.094,-0.075 0.163,-0.075c0.069,0 0.125,0.024 0.17,0.071c0.045,0.046 0.067,0.11 0.067,0.191c0,0.08 -0.023,0.144 -0.069,0.191c-0.046,0.047 -0.103,0.071 -0.17,0.071c-0.071,0 -0.124,-0.025 -0.161,-0.075l0,0.061l-0.126,0Zm0.157,-0.144c0.027,0.027 0.06,0.04 0.101,0.04c0.041,0 0.074,-0.013 0.101,-0.04c0.026,-0.027 0.039,-0.062 0.039,-0.104c0,-0.042 -0.013,-0.076 -0.039,-0.104c-0.027,-0.026 -0.06,-0.04 -0.101,-0.04c-0.041,0 -0.074,0.014 -0.1,0.04c-0.027,0.028 -0.04,0.062 -0.04,0.104c0,0.042 0.013,0.077 0.039,0.104Z" style="fill-rule:nonzero;"/></g><g transform="matrix(16.5543,0,0,16.5543,5821.82,7888)"><path d="M0.528,0l-0.128,0c-0.016,-0.02 -0.024,-0.046 -0.024,-0.079c-0.035,0.062 -0.09,0.093 -0.166,0.093c-0.049,0 -0.089,-0.014 -0.121,-0.042c-0.031,-0.029 -0.046,-0.066 -0.046,-0.113c0,-0.047 0.017,-0.084 0.05,-0.111c0.033,-0.028 0.075,-0.045 0.127,-0.053l0.149,-0.023l0,-0.019c0,-0.05 -0.03,-0.075 -0.091,-0.075c-0.028,0 -0.05,0.005 -0.066,0.016c-0.015,0.011 -0.023,0.024 -0.023,0.04c0,0.004 0.001,0.008 0.002,0.012l-0.113,0.038c-0.006,-0.013 -0.009,-0.027 -0.009,-0.042c0,-0.041 0.019,-0.076 0.057,-0.106c0.038,-0.031 0.089,-0.046 0.152,-0.046c0.071,0 0.125,0.015 0.161,0.045c0.037,0.03 0.056,0.075 0.056,0.135l0,0.207c0,0.05 0.011,0.091 0.033,0.123Zm-0.288,-0.088c0.038,0 0.069,-0.012 0.093,-0.038c0.024,-0.024 0.036,-0.06 0.036,-0.106l0,-0.009l-0.12,0.02c-0.055,0.009 -0.083,0.034 -0.083,0.073c0,0.019 0.007,0.034 0.02,0.045c0.013,0.01 0.031,0.015 0.054,0.015Z" style="fill-rule:nonzero;"/></g><g transform="matrix(16.5543,0,0,16.5543,5831.02,7888)"><path d="M0.37,-0.504l-0.02,0.119c-0.013,-0.005 -0.026,-0.007 -0.041,-0.007c-0.037,0 -0.066,0.014 -0.087,0.041c-0.022,0.028 -0.033,0.063 -0.033,0.106l0,0.245l-0.126,0l0,-0.496l0.126,0l0,0.079c0.031,-0.062 0.077,-0.093 0.138,-0.093c0.015,0 0.03,0.002 0.043,0.006Z" style="fill-rule:nonzero;"/></g><g transform="matrix(16.5543,0,0,16.5543,5837.38,7888)"><path d="M0.37,-0.504l-0.02,0.119c-0.013,-0.005 -0.026,-0.007 -0.041,-0.007c-0.037,0 -0.066,0.014 -0.087,0.041c-0.022,0.028 -0.033,0.063 -0.033,0.106l0,0.245l-0.126,0l0,-0.496l0.126,0l0,0.079c0.031,-0.062 0.077,-0.093 0.138,-0.093c0.015,0 0.03,0.002 0.043,0.006Z" style="fill-rule:nonzero;"/></g><g transform="matrix(16.5543,0,0,16.5543,5843.37,7888)"><path d="M0.538,-0.218l-0.382,0c0.004,0.038 0.018,0.068 0.043,0.091c0.025,0.022 0.056,0.033 0.093,0.033c0.061,0 0.107,-0.03 0.137,-0.091l0.094,0.054c-0.047,0.097 -0.124,0.145 -0.233,0.145c-0.071,0 -0.131,-0.024 -0.181,-0.073c-0.049,-0.049 -0.074,-0.112 -0.074,-0.189c0,-0.077 0.025,-0.14 0.075,-0.189c0.051,-0.049 0.113,-0.073 0.186,-0.073c0.071,0 0.129,0.023 0.174,0.07c0.045,0.046 0.068,0.105 0.068,0.178l0,0.044Zm-0.246,-0.196c-0.033,0 -0.061,0.01 -0.086,0.03c-0.024,0.019 -0.041,0.044 -0.05,0.074l0.266,0c-0.006,-0.033 -0.02,-0.058 -0.043,-0.077c-0.023,-0.018 -0.052,-0.027 -0.087,-0.027Z" style="fill-rule:nonzero;"/></g><g transform="matrix(16.5543,0,0,16.5543,5852.68,7888)"><path d="M0.18,-0.374c0,0.031 0.039,0.054 0.117,0.07c0.058,0.012 0.1,0.03 0.127,0.054c0.026,0.025 0.039,0.058 0.039,0.099c0,0.048 -0.018,0.087 -0.053,0.118c-0.035,0.031 -0.083,0.047 -0.143,0.047c-0.057,0 -0.105,-0.014 -0.142,-0.042c-0.038,-0.028 -0.066,-0.064 -0.085,-0.107l0.101,-0.064c0.011,0.033 0.028,0.059 0.05,0.078c0.021,0.019 0.047,0.029 0.078,0.029c0.021,0 0.039,-0.005 0.055,-0.015c0.015,-0.009 0.023,-0.023 0.023,-0.04c0,-0.016 -0.008,-0.029 -0.025,-0.039c-0.017,-0.009 -0.044,-0.018 -0.081,-0.025c-0.115,-0.023 -0.173,-0.074 -0.173,-0.155c0,-0.045 0.018,-0.08 0.054,-0.106c0.036,-0.025 0.08,-0.038 0.131,-0.038c0.053,0 0.095,0.01 0.127,0.03c0.031,0.02 0.057,0.052 0.078,0.095l-0.091,0.054c-0.023,-0.058 -0.06,-0.087 -0.112,-0.087c-0.05,0 -0.075,0.015 -0.075,0.044Z" style="fill-rule:nonzero;"/></g><g transform="matrix(16.5543,0,0,16.5543,5802.68,7905)"><path d="M0.561,-0.7l0,0.7l-0.126,0l0,-0.07c-0.014,0.025 -0.035,0.045 -0.062,0.061c-0.027,0.015 -0.058,0.023 -0.094,0.023c-0.07,0 -0.128,-0.024 -0.175,-0.071c-0.046,-0.047 -0.069,-0.111 -0.069,-0.191c0,-0.079 0.024,-0.142 0.074,-0.19c0.049,-0.048 0.105,-0.072 0.17,-0.072c0.073,0 0.125,0.025 0.156,0.075l0,-0.265l0.126,0Zm-0.358,0.556c0.027,0.027 0.06,0.04 0.1,0.04c0.04,0 0.073,-0.014 0.1,-0.041c0.027,-0.027 0.04,-0.061 0.04,-0.103c0,-0.042 -0.013,-0.077 -0.04,-0.104c-0.027,-0.027 -0.06,-0.04 -0.1,-0.04c-0.04,0 -0.073,0.013 -0.1,0.04c-0.027,0.027 -0.04,0.062 -0.04,0.104c0,0.042 0.013,0.077 0.04,0.104Z" style="fill-rule:nonzero;"/></g><g transform="matrix(16.5543,0,0,16.5543,5813.01,7905)"><path d="M0.496,-0.44c0.054,0.046 0.081,0.11 0.081,0.192c0,0.082 -0.027,0.146 -0.08,0.193c-0.054,0.046 -0.118,0.069 -0.191,0.069c-0.073,0 -0.137,-0.023 -0.19,-0.07c-0.054,-0.046 -0.081,-0.11 -0.081,-0.192c0,-0.082 0.027,-0.146 0.081,-0.193c0.053,-0.046 0.117,-0.069 0.19,-0.069c0.073,0 0.137,0.023 0.19,0.07Zm-0.291,0.297c0.029,0.026 0.062,0.039 0.101,0.039c0.039,0 0.072,-0.013 0.101,-0.04c0.028,-0.026 0.042,-0.061 0.042,-0.104c0,-0.043 -0.014,-0.078 -0.042,-0.104c-0.029,-0.027 -0.062,-0.04 -0.101,-0.04c-0.039,0 -0.072,0.013 -0.1,0.04c-0.029,0.026 -0.043,0.061 -0.043,0.104c0,0.043 0.014,0.078 0.042,0.105Z" style="fill-rule:nonzero;"/></g><g transform="matrix(16.5543,0,0,16.5543,5823.14,7905)"><path d="M0.531,-0.338l0,0.338l-0.126,0l0,-0.286c0,-0.071 -0.034,-0.106 -0.101,-0.106c-0.033,0 -0.061,0.013 -0.083,0.039c-0.021,0.026 -0.032,0.06 -0.032,0.101l0,0.252l-0.126,0l0,-0.496l0.126,0l0,0.08c0.041,-0.063 0.097,-0.094 0.168,-0.094c0.053,0 0.095,0.016 0.126,0.047c0.032,0.031 0.048,0.073 0.048,0.125Z" style="fill-rule:nonzero;"/></g><g transform="matrix(16.5543,0,0,16.5543,5832.98,7905)"><path d="M0.531,-0.338l0,0.338l-0.126,0l0,-0.286c0,-0.071 -0.034,-0.106 -0.101,-0.106c-0.033,0 -0.061,0.013 -0.083,0.039c-0.021,0.026 -0.032,0.06 -0.032,0.101l0,0.252l-0.126,0l0,-0.496l0.126,0l0,0.08c0.041,-0.063 0.097,-0.094 0.168,-0.094c0.053,0 0.095,0.016 0.126,0.047c0.032,0.031 0.048,0.073 0.048,0.125Z" style="fill-rule:nonzero;"/></g><g transform="matrix(16.5543,0,0,16.5543,5842.69,7905)"><path d="M0.538,-0.218l-0.382,0c0.004,0.038 0.018,0.068 0.043,0.091c0.025,0.022 0.056,0.033 0.093,0.033c0.061,0 0.107,-0.03 0.137,-0.091l0.094,0.054c-0.047,0.097 -0.124,0.145 -0.233,0.145c-0.071,0 -0.131,-0.024 -0.181,-0.073c-0.049,-0.049 -0.074,-0.112 -0.074,-0.189c0,-0.077 0.025,-0.14 0.075,-0.189c0.051,-0.049 0.113,-0.073 0.186,-0.073c0.071,0 0.129,0.023 0.174,0.07c0.045,0.046 0.068,0.105 0.068,0.178l0,0.044Zm-0.246,-0.196c-0.033,0 -0.061,0.01 -0.086,0.03c-0.024,0.019 -0.041,0.044 -0.05,0.074l0.266,0c-0.006,-0.033 -0.02,-0.058 -0.043,-0.077c-0.023,-0.018 -0.052,-0.027 -0.087,-0.027Zm-0.085,-0.136l0.068,-0.158l0.153,0l-0.124,0.158l-0.097,0Z" style="fill-rule:nonzero;"/></g><g transform="matrix(16.5543,0,0,16.5543,5852.21,7905)"><path d="M0.538,-0.218l-0.382,0c0.004,0.038 0.018,0.068 0.043,0.091c0.025,0.022 0.056,0.033 0.093,0.033c0.061,0 0.107,-0.03 0.137,-0.091l0.094,0.054c-0.047,0.097 -0.124,0.145 -0.233,0.145c-0.071,0 -0.131,-0.024 -0.181,-0.073c-0.049,-0.049 -0.074,-0.112 -0.074,-0.189c0,-0.077 0.025,-0.14 0.075,-0.189c0.051,-0.049 0.113,-0.073 0.186,-0.073c0.071,0 0.129,0.023 0.174,0.07c0.045,0.046 0.068,0.105 0.068,0.178l0,0.044Zm-0.246,-0.196c-0.033,0 -0.061,0.01 -0.086,0.03c-0.024,0.019 -0.041,0.044 -0.05,0.074l0.266,0c-0.006,-0.033 -0.02,-0.058 -0.043,-0.077c-0.023,-0.018 -0.052,-0.027 -0.087,-0.027Z" style="fill-rule:nonzero;"/></g><g transform="matrix(16.5543,0,0,16.5543,5861.52,7905)"><path d="M0.18,-0.374c0,0.031 0.039,0.054 0.117,0.07c0.058,0.012 0.1,0.03 0.127,0.054c0.026,0.025 0.039,0.058 0.039,0.099c0,0.048 -0.018,0.087 -0.053,0.118c-0.035,0.031 -0.083,0.047 -0.143,0.047c-0.057,0 -0.105,-0.014 -0.142,-0.042c-0.038,-0.028 -0.066,-0.064 -0.085,-0.107l0.101,-0.064c0.011,0.033 0.028,0.059 0.05,0.078c0.021,0.019 0.047,0.029 0.078,0.029c0.021,0 0.039,-0.005 0.055,-0.015c0.015,-0.009 0.023,-0.023 0.023,-0.04c0,-0.016 -0.008,-0.029 -0.025,-0.039c-0.017,-0.009 -0.044,-0.018 -0.081,-0.025c-0.115,-0.023 -0.173,-0.074 -0.173,-0.155c0,-0.045 0.018,-0.08 0.054,-0.106c0.036,-0.025 0.08,-0.038 0.131,-0.038c0.053,0 0.095,0.01 0.127,0.03c0.031,0.02 0.057,0.052 0.078,0.095l-0.091,0.054c-0.023,-0.058 -0.06,-0.087 -0.112,-0.087c-0.05,0 -0.075,0.015 -0.075,0.044Z" style="fill-rule:nonzero;"/></g></g></g><path d="M537.645,280.701l0,-19.641l93.197,0l0,19.641l-93.197,0Zm0,-38.511l0,-19.641l93.197,0l0,19.641l-93.197,0Z" style="fill-rule:nonzero;"/><path d="M323.467,235.398l15.952,-4.751l15.19,0.169l0,59.69l-18.075,0l-9.821,-6.065l-138.326,0l-16.8,4.412l-17.441,0l0,-60.304l16.253,0l17.648,6.849l135.42,0Z" style="fill:none;stroke:#000;stroke-width:9px;"/></svg>